<?xml version="1.0" encoding="UTF-8"?>
<svg width="508px" height="508px" viewBox="0 0 508 508" version="1.1" xmlns="http://www.w3.org/2000/svg" xmlns:xlink="http://www.w3.org/1999/xlink">
    <!-- Generator: Sketch 55.1 (78136) - https://sketchapp.com -->
    <title>Group</title>
    <desc>Created with Sketch.</desc>
    <g id="Page-1" stroke="none" stroke-width="1" fill="none" fill-rule="evenodd">
        <g id="noun_Download_765054" fill="#FFFFFF" fill-rule="nonzero">
            <g id="Group">
                <path d="M246.6,352.1 C250.1,356.8 257.9,356.8 261.5,352.1 L378.7,215.5 C382.7,210.2 378.4,203.2 371.3,203.2 L311.7,203.2 C308.2,203.2 305.4,200.5 305.4,197.1 L305.4,6.1 C305.4,2.7 302.6,0 299.1,0 L209.7,0 C206.2,0 203.4,2.7 203.4,6.1 L203.4,197.1 C203.4,200.5 200.6,203.2 197.1,203.2 L137,203.2 C129.9,203.2 125.6,210.2 129.6,215.5 L246.6,352.1 Z" id="Path"></path>
                <path d="M497.8,304.8 L467.3,304.8 C461.7,304.8 457.1,309.3 457.1,315 L457.1,447 C457.1,452.6 452.6,457.2 446.9,457.2 L61,457.2 C55.4,457.2 50.8,452.7 50.8,447 L50.8,315 C50.8,309.4 46.3,304.8 40.6,304.8 L10.2,304.8 C4.5,304.8 0,309.3 0,315 L0,457.2 C0,485.3 22.7,508 50.8,508 L457.2,508 C485.3,508 508,485.3 508,457.2 L508,315 C508,309.3 503.4,304.8 497.8,304.8 Z" id="Path"></path>
            </g>
        </g>
    </g>
</svg>