<?xml version="1.0" encoding="UTF-8"?>
<svg width="733px" height="297px" viewBox="0 0 733 297" version="1.1" xmlns="http://www.w3.org/2000/svg" xmlns:xlink="http://www.w3.org/1999/xlink">
    <!-- Generator: Sketch 55.1 (78136) - https://sketchapp.com -->
    <title>Yes A4(1)</title>
    <desc>Created with Sketch.</desc>
    <g id="Yes-A4(1)" stroke="none" stroke-width="1" fill="none" fill-rule="evenodd">
        <polygon id="Fill-2" fill="#D5344D" points="190.756858 0 276 0 175.912316 183 100 183"></polygon>
        <polygon id="Fill-3" fill="#4E5391" points="100.087684 183 0 0 85.2431422 0 176 183"></polygon>
        <polygon id="Fill-4" fill="#E8883C" points="100 297 176 297 176 183 100 183"></polygon>
        <polygon id="Fill-5" fill="#4E5391" points="476 113.00401 374 113 374 182.99599 475.997999 183"></polygon>
        <polygon id="Fill-6" fill="#4E5391" points="487 1.00401862 374 1 374 71.9959814 486.996988 72"></polygon>
        <polygon id="Fill-7" fill="#4E5391" points="374 226 374 296.996005 488.997994 297 489 226.003995"></polygon>
        <polygon id="Fill-8" fill="#1BA0CE" points="374 1.00299771 298.010021 1 298 296.997002 374 297"></polygon>
        <g id="Group-13" transform="translate(516.000000, 1.000000)">
            <path d="M124.253059,118.279211 C120.393922,117.144911 116.822321,116.055676 113.512291,115 L81.2419042,174.904095 C83.2219598,175.526379 85.214517,176.127567 87.2176525,176.70862 C123.435649,186.853081 142.157225,191.722998 142.156263,207.953176 C142.156263,217.69205 134.422602,227.02342 108.784776,227.022461 C80.2985168,227.021502 55.1732551,213.360998 34.1119639,197.400252 L0,256.310037 C34.0734976,284.90917 69.1490437,296 106.747983,296 C171.045457,296.001918 215,263.545396 215,207.142962 C215,147.495834 168.203755,131.264696 124.253059,118.279211" id="Fill-9" fill="#4E5391"></path>
            <path d="M81.2626451,175 L113.36733,115.131856 C83.6754954,105.622101 75.4687429,98.9047108 75.4687429,87.5876806 C75.4696996,77.4502664 83.9720789,68.9370999 101.786223,68.9370999 C122.435132,68.9380582 141.02709,75.1935682 159.563559,88.5919353 L193,26.5303385 C153.985876,0.436965771 129.73874,0 101.383444,0 C46.3231954,0 3.00191344,34.8671854 3,87.9930239 C2.99808656,138.737591 39.203278,161.730998 81.2626451,175" id="Fill-11" fill="#1E988B"></path>
        </g>
    </g>
</svg>